<svg width="20" height="18" viewBox="0 0 20 18" fill="none" xmlns="http://www.w3.org/2000/svg">
<path d="M15.5576 17.2957L15.5593 17.2949C15.889 17.1449 16.2141 16.8569 16.4522 16.4964C16.6909 16.1351 16.815 15.7429 16.8006 15.4032C16.7739 14.7824 16.4099 14.2328 15.8245 13.6419C15.5689 13.3839 15.2889 13.135 14.9965 12.875C14.9572 12.8401 14.9177 12.805 14.878 12.7696C14.5501 12.4775 14.21 12.1693 13.9141 11.8433C13.554 11.455 13.2197 10.9967 12.9018 10.5503C12.856 10.486 12.8106 10.4219 12.7654 10.3582C12.4898 9.96975 12.2231 9.59389 11.9421 9.25015C11.2777 8.43741 10.6456 7.94872 9.89045 7.94872C9.13471 7.94872 8.51565 8.44151 7.85483 9.26226C7.60655 9.57062 7.37089 9.90081 7.12649 10.2433C7.04962 10.351 6.97189 10.4599 6.89263 10.5697C6.56992 11.0169 6.22544 11.4737 5.84506 11.8558C5.55693 12.1526 5.22604 12.4233 4.90662 12.6755C4.83078 12.7354 4.7559 12.794 4.68205 12.8518C4.43575 13.0445 4.20078 13.2284 3.97917 13.4212C3.39895 13.926 3.03358 14.3917 2.96725 14.942L15.5576 17.2957ZM15.5576 17.2957C14.8588 17.6168 14.0581 17.4649 13.0567 17.1417C12.8881 17.0873 12.7095 17.0266 12.5262 16.9643C12.2004 16.8536 11.8597 16.7378 11.5334 16.6431C11.0095 16.4911 10.4541 16.3707 9.89045 16.3707C9.32422 16.3707 8.76571 16.4966 8.24048 16.6543C7.92004 16.7505 7.583 16.8684 7.26113 16.9811C7.07146 17.0475 6.88705 17.112 6.7144 17.1691C5.71096 17.5014 4.92536 17.6464 4.25067 17.3041L4.25069 17.304M15.5576 17.2957L4.25069 17.304M4.25069 17.304L4.24504 17.3013M4.25069 17.304L4.24504 17.3013M4.24504 17.3013C3.8589 17.1114 3.5073 16.7491 3.26596 16.3004M4.24504 17.3013L3.26596 16.3004M3.26596 16.3004C3.02452 15.8515 2.91714 15.3601 2.96722 14.9422L3.26596 16.3004ZM8.65337 3.01138L8.65347 3.01191C8.81652 3.81613 8.74426 4.54955 8.5246 5.08074C8.30449 5.613 7.96618 5.88988 7.60386 5.94533L7.60323 5.94543C7.23644 6.00204 6.784 5.83515 6.34565 5.38239C5.91334 4.93586 5.54774 4.25769 5.38051 3.45058L5.38039 3.45003C5.2134 2.64857 5.28753 1.91666 5.51024 1.38458C5.7328 0.852855 6.07543 0.569969 6.44051 0.509304C6.81414 0.457027 7.26648 0.628626 7.69994 1.07964C8.12967 1.52677 8.49068 2.20438 8.65337 3.01138ZM12.2567 5.94533L12.2561 5.94523C11.8877 5.88932 11.5478 5.61107 11.3285 5.08074C11.1093 4.55066 11.0391 3.81827 11.2066 3.01456L11.2072 3.01138C11.3699 2.20438 11.731 1.52652 12.1598 1.07919C12.5931 0.627222 13.0429 0.457241 13.4101 0.509302C13.7806 0.570066 14.1232 0.853373 14.3469 1.38535C14.5707 1.91744 14.6472 2.6494 14.4898 3.45164C14.3173 4.25907 13.9516 4.93651 13.5199 5.38239C13.0823 5.83442 12.6296 6.00239 12.2567 5.94533ZM1.23594 5.06971C1.61659 4.90615 2.11785 4.95217 2.6571 5.25642C3.19119 5.55775 3.71202 6.08929 4.07514 6.78312C4.41397 7.49329 4.51239 8.19601 4.4212 8.75009C4.33006 9.30385 4.06261 9.66812 3.69552 9.82781C3.31988 9.99123 2.82428 9.94754 2.2926 9.64456C1.76454 9.34366 1.24983 8.80924 0.896019 8.10381C0.542931 7.39983 0.441271 6.69624 0.530672 6.14057C0.620092 5.58478 0.886641 5.22321 1.23594 5.06971ZM18.764 5.0697C19.1134 5.2232 19.3799 5.58477 19.4693 6.14057C19.5587 6.69624 19.4571 7.39983 19.104 8.10381C18.7502 8.80924 18.2355 9.34366 17.7074 9.64456C17.1757 9.94754 16.6801 9.99123 16.3045 9.82781C15.9374 9.66812 15.6699 9.30385 15.5788 8.75009C15.4876 8.19602 15.586 7.49329 15.9249 6.78313C16.288 6.0893 16.8088 5.55776 17.3429 5.25642C17.8821 4.95218 18.3834 4.90615 18.764 5.0697Z" fill="#FFFAE6" stroke="white"/>
</svg>



