<svg width="63" height="58" viewBox="0 0 63 58" fill="none" xmlns="http://www.w3.org/2000/svg">
<path d="M26.3813 26C27.3598 26 28.1531 25.1941 28.1531 24.2C28.1531 23.2059 27.3598 22.4 26.3813 22.4C25.4027 22.4 24.6094 23.2059 24.6094 24.2C24.6094 25.1941 25.4027 26 26.3813 26Z" fill="#2B201B" fill-opacity="0.84"/>
<path d="M28.4587 30.5425C28.4587 29.8797 28.9876 29.3425 29.64 29.3425H31.4119C32.0642 29.3425 32.5931 29.8797 32.5931 30.5425C32.5931 31.1175 32.1949 31.5981 31.6634 31.7152C31.6853 31.8065 31.6969 31.9019 31.6969 32C31.6969 32.3314 31.9613 32.6 32.2875 32.6C32.6106 32.6 32.8781 32.3371 32.8781 32C32.8781 31.3373 33.407 30.8 34.0594 30.8C34.7118 30.8 35.2406 31.3373 35.2406 32C35.2406 32.7083 34.9975 33.3622 34.5924 33.8756C34.0532 34.559 33.2206 35 32.2875 35C31.6227 35 31.0092 34.7768 30.5156 34.4002C30.0221 34.7768 29.4086 35 28.7438 35C27.1128 35 25.7906 33.6569 25.7906 32C25.7906 31.3373 26.3195 30.8 26.9719 30.8C27.6243 30.8 28.1531 31.3373 28.1531 32C28.1531 32.3314 28.4176 32.6 28.7438 32.6C29.0699 32.6 29.3344 32.3314 29.3344 32C29.3344 31.9003 29.3464 31.8034 29.3689 31.7107C28.8472 31.5863 28.4587 31.1104 28.4587 30.5425Z" fill="#2B201B" fill-opacity="0.84"/>
<path d="M36.1266 24.2C36.1266 25.1941 35.3333 26 34.3547 26C33.3761 26 32.5828 25.1941 32.5828 24.2C32.5828 23.2059 33.3761 22.4 34.3547 22.4C35.3333 22.4 36.1266 23.2059 36.1266 24.2Z" fill="#2B201B" fill-opacity="0.84"/>
<path fill-rule="evenodd" clip-rule="evenodd" d="M25.658 14.8091C26.7778 14.2895 28.0228 14 29.3344 14H31.6969C33.0084 14 34.2534 14.2895 35.3733 14.8091C35.7221 14.4616 36.2378 14.2849 36.7831 14.4313L39.0763 15.047C42.7336 16.029 45.2812 19.39 45.2812 23.233V28.1171C45.2812 30.0959 43.7022 31.7 41.7544 31.7C41.3169 31.7 40.8979 31.6191 40.5113 31.4711C40.3275 33.4486 39.5879 35.2616 38.453 36.7475C38.069 40.8168 34.6619 44 30.5156 44C26.3693 44 22.9622 40.8168 22.5782 36.7475C21.4433 35.2616 20.7038 33.4486 20.5199 31.4711C20.1333 31.6191 19.7144 31.7 19.2769 31.7C17.329 31.7 15.75 30.0959 15.75 28.1171V23.233C15.75 19.39 18.2976 16.029 21.955 15.047L24.2482 14.4313C24.7935 14.2849 25.3091 14.4616 25.658 14.8091ZM29.3023 16.4001C25.7289 16.4176 22.8375 19.3658 22.8375 23V30.5C22.8375 34.8078 26.2751 38.3 30.5156 38.3C34.7561 38.3 38.1938 34.8078 38.1938 30.5V30.2124C35.1944 30.5136 32.1083 29.3048 30.0997 26.7203C27.7311 23.6726 27.5403 19.5879 29.3023 16.4001ZM38.1938 27.7967V23C38.1938 19.516 35.5364 16.6625 32.1685 16.4171C30.054 18.8697 29.8935 22.5819 31.9539 25.2331C33.4947 27.2157 35.8919 28.11 38.1938 27.7967ZM22.3854 17.4167C19.8579 18.178 18.1125 20.5404 18.1125 23.233V28.1171C18.1125 28.7704 18.6338 29.3 19.2769 29.3C19.9199 29.3 20.4413 28.7704 20.4413 28.1171C20.4413 26.4103 20.475 24.7069 20.475 23C20.475 20.8908 21.1892 18.951 22.3854 17.4167ZM26.3848 39.7995C27.4103 40.921 28.8814 41.6238 30.5156 41.6238C32.1499 41.6238 33.621 40.921 34.6465 39.7995C33.3866 40.378 31.9881 40.7 30.5156 40.7C29.0432 40.7 27.6447 40.378 26.3848 39.7995ZM40.59 28.1171C40.59 28.7704 41.1113 29.3 41.7544 29.3C42.3974 29.3 42.9187 28.7704 42.9187 28.1171V23.233C42.9187 20.5404 41.1733 18.178 38.6459 17.4167C39.842 18.951 40.5563 20.8908 40.5563 23C40.5563 24.7069 40.59 26.4103 40.59 28.1171Z" fill="#2B201B" fill-opacity="0.84"/>
</svg>
