<svg width="63" height="58" viewBox="0 0 63 58" fill="none" xmlns="http://www.w3.org/2000/svg">
<rect width="63" height="58" fill="url(#paint0_linear_55_640)"/>
<path d="M23.489 25.3863C23.489 26.3812 24.2947 27.1877 25.2887 27.1877C26.2827 27.1877 27.0885 26.3812 27.0885 25.3863C27.0885 24.3915 26.2827 23.585 25.2887 23.585C24.2947 23.585 23.489 24.3915 23.489 25.3863Z" fill="#2B201B" fill-opacity="0.84"/>
<path d="M36.6871 27.1877C35.6932 27.1877 34.8874 26.3812 34.8874 25.3863C34.8874 24.3915 35.6932 23.585 36.6871 23.585C37.6811 23.585 38.4869 24.3915 38.4869 25.3863C38.4869 26.3812 37.6811 27.1877 36.6871 27.1877Z" fill="#2B201B" fill-opacity="0.84"/>
<path d="M32.1878 28.2279V29.2892C32.1878 29.5321 32.4313 29.8897 32.9377 29.8897C33.444 29.8897 33.6876 29.5321 33.6876 29.2892C33.6876 28.626 34.2247 28.0883 34.8874 28.0883C35.55 28.0883 36.0872 28.626 36.0872 29.2892C36.0872 31.036 34.5849 32.2914 32.9377 32.2914C32.2237 32.2914 31.5369 32.0556 30.9879 31.646C30.4389 32.0556 29.7522 32.2914 29.0382 32.2914C28.0792 32.2914 27.1982 31.8801 26.6102 31.2024C26.167 30.6917 25.8886 30.0252 25.8886 29.2892C25.8886 28.626 26.4258 28.0883 27.0885 28.0883C27.7511 28.0883 28.2883 28.626 28.2883 29.2892C28.2883 29.6686 28.7022 29.8897 29.0382 29.8897C29.5446 29.8897 29.7881 29.5321 29.7881 29.2892V28.2279C29.4295 28.0203 29.1882 27.6322 29.1882 27.1877C29.1882 26.5244 29.7254 25.9868 30.388 25.9868H31.5878C32.2505 25.9868 32.7877 26.5244 32.7877 27.1877C32.7877 27.6322 32.5464 28.0203 32.1878 28.2279Z" fill="#2B201B" fill-opacity="0.84"/>
<path fill-rule="evenodd" clip-rule="evenodd" d="M16.0003 15.7411C16.0649 19.4535 16.431 21.9588 17.5841 24.5141C17.3722 25.2984 17.2414 26.1103 17.2023 26.9425C16.7223 26.9534 16.2757 27.254 16.1016 27.7327C15.875 28.3559 16.196 29.045 16.8187 29.2719L17.3323 29.459C17.4692 30.3856 17.702 31.2499 18.0177 32.052L17.8294 32.1351C17.2231 32.4027 16.9483 33.1115 17.2157 33.7184C17.4831 34.3252 18.1913 34.6002 18.7977 34.3326L19.1394 34.1818C19.491 34.701 19.8834 35.1842 20.311 35.6314L19.8454 36.0973C19.3769 36.5663 19.3769 37.3266 19.8454 37.7956C20.314 38.2646 21.0737 38.2646 21.5423 37.7956L21.694 37.6438C21.4966 41.3891 25.943 42.9127 28.926 43.2759C29.4908 43.729 30.2077 44 30.9879 44C31.7681 44 32.485 43.729 33.0499 43.2759C36.0399 42.9118 40.5397 41.3608 40.2785 37.5874L40.4865 37.7956C40.9551 38.2646 41.7148 38.2646 42.1834 37.7956C42.6519 37.3266 42.6519 36.5663 42.1834 36.0973L41.6907 35.6042C42.1132 35.1595 42.501 34.6793 42.8486 34.1638L43.2311 34.3326C43.8374 34.6002 44.5457 34.3252 44.8131 33.7184C45.0805 33.1115 44.8057 32.4027 44.1994 32.1351L43.966 32.0321C44.2754 31.2415 44.5044 30.3906 44.6406 29.4793L45.2101 29.2719C45.8328 29.045 46.1538 28.3559 45.9272 27.7327C45.7467 27.2364 45.2734 26.9316 44.7736 26.9425C44.7352 26.1262 44.6086 25.3295 44.4038 24.5592C45.5665 21.9946 45.9349 19.4848 45.9997 15.7594C46.0169 14.7732 45.2154 13.9632 44.2316 14.0213C41.3977 14.1886 38.9903 14.8332 37.0477 16.0011C35.1697 15.0918 33.0931 14.5784 30.9879 14.5784C28.8941 14.5784 26.8284 15.0863 24.9585 15.9865C23.0148 14.8163 20.6053 14.1705 17.7684 14.0029C16.7846 13.9448 15.9831 14.7548 16.0003 15.7411ZM18.418 16.4621C18.479 18.4081 18.6441 19.9273 18.9894 21.2917C19.9051 19.8088 21.1257 18.5028 22.5457 17.4464C21.3863 16.9511 20.019 16.6183 18.418 16.4621ZM34.2864 40.6134C35.0287 40.4287 35.6963 40.1824 36.2529 39.8858C37.2001 39.3809 37.6405 38.8554 37.8053 38.3485C36.632 38.8913 35.3708 39.2816 34.0712 39.5192C34.2015 39.8604 34.2768 40.2287 34.2864 40.6134ZM30.9879 37.3952C33.6658 37.3952 36.2561 36.681 38.2682 35.3517C38.1592 34.9498 38.2623 34.5023 38.5776 34.1867C38.9481 33.8159 39.5007 33.7383 39.9475 33.954C40.1839 33.7055 40.4068 33.4427 40.6144 33.1654C40.1121 32.8556 39.9025 32.2146 40.1473 31.6591C40.4245 31.03 41.1557 30.7917 41.7678 31.0619C41.8672 30.7991 41.9556 30.5272 42.0323 30.2462C41.6336 30.1677 41.2845 29.8883 41.1354 29.4783C40.9088 28.855 41.2298 28.1659 41.8525 27.9391L42.3833 27.7458C42.5192 21.7411 36.7333 16.9802 30.9879 16.9802C25.2516 16.9802 19.4662 21.7295 19.5922 27.7263L20.1763 27.9391C20.799 28.1659 21.12 28.855 20.8934 29.4783C20.738 29.9056 20.3655 30.191 19.946 30.2551C20.024 30.5401 20.1142 30.8156 20.2156 31.0819C20.8425 30.8052 21.589 30.9952 21.8815 31.6591C22.1321 32.2279 21.9064 32.8864 21.3777 33.1871C21.5858 33.4631 21.809 33.7246 22.0456 33.972C22.4982 33.7343 23.0707 33.8059 23.4512 34.1867C23.7742 34.51 23.8745 34.9717 23.7522 35.381C25.7579 36.6914 28.3298 37.3952 30.9879 37.3952ZM27.9046 39.5192C27.7744 39.8604 27.699 40.2287 27.6894 40.6134C26.9471 40.4287 26.2796 40.1824 25.723 39.8858C24.7758 39.3809 24.3354 38.8554 24.1705 38.3485C25.3439 38.8913 26.605 39.2816 27.9046 39.5192ZM43.582 16.4805C43.5208 18.4334 43.3547 19.9567 43.0068 21.3248C42.0941 19.8368 40.8747 18.5257 39.4546 17.4646C40.614 16.9694 41.9811 16.6367 43.582 16.4805ZM31.8878 40.6976C31.8878 41.195 31.4849 41.5982 30.9879 41.5982C30.4909 41.5982 30.088 41.195 30.088 40.6976C30.088 40.2002 30.4909 39.7969 30.9879 39.7969C31.4849 39.7969 31.8878 40.2002 31.8878 40.6976Z" fill="#2B201B" fill-opacity="0.84"/>
<defs>
<linearGradient id="paint0_linear_55_640" x1="31.5" y1="0" x2="31.5" y2="58" gradientUnits="userSpaceOnUse">
<stop stop-color="#FFF570"/>
<stop offset="1" stop-color="#FFA570"/>
</linearGradient>
</defs>
</svg>
