<svg width="63" height="58" viewBox="0 0 63 58" fill="none" xmlns="http://www.w3.org/2000/svg">
<path d="M33.6702 17.2018L32.6751 17.3013V17.3013L33.6702 17.2018ZM33.3238 15.8153L32.595 16.5L32.595 16.5L33.3238 15.8153ZM34.3408 19.6249L34.8303 18.7529L34.8303 18.7529L34.3408 19.6249ZM34.5598 19.7156L34.2893 20.6783L34.2893 20.6783L34.5598 19.7156ZM36.7473 18.4764L36.1141 17.7025V17.7025L36.7473 18.4764ZM37.9726 17.7409L38.0038 18.7404L37.9726 17.7409ZM38.1343 17.749L38.2648 16.7575L38.2648 16.7575L38.1343 17.749ZM39.2804 18.6027L38.5733 19.3099L38.5733 19.3099L39.2804 18.6027ZM40.3972 19.7196L39.6901 20.4267L40.3972 19.7196ZM41.251 20.8656L42.2424 20.7352L42.2424 20.7351L41.251 20.8656ZM41.259 21.0273L42.2585 21.0585V21.0585L41.259 21.0273ZM40.5235 22.2526L39.7496 21.6194L40.5235 22.2526ZM39.2843 24.4402L38.3216 24.7107L38.3216 24.7107L39.2843 24.4402ZM39.375 24.6592L40.2471 24.1697L40.2471 24.1697L39.375 24.6592ZM41.7982 25.3298L41.6987 26.3249H41.6987L41.7982 25.3298ZM43.1847 25.6762L42.5 26.405L42.5 26.405L43.1847 25.6762ZM43.2933 25.7962L42.5 26.405L42.5 26.405L43.2933 25.7962ZM43.2934 30.2037L42.5 29.595L42.5 29.595L43.2934 30.2037ZM43.1846 30.3239L43.8693 31.0528L43.8693 31.0528L43.1846 30.3239ZM41.7983 30.6702L41.8978 31.6652H41.8978L41.7983 30.6702ZM39.3756 31.3405L38.5038 30.8508L38.5038 30.8508L39.3756 31.3405ZM39.2847 31.56L40.2475 31.8302L40.2475 31.8302L39.2847 31.56ZM40.5237 33.747L41.3558 33.1923L41.3287 33.1516L41.2977 33.1137L40.5237 33.747ZM40.5237 33.747L39.6917 34.3017L39.7188 34.3424L39.7498 34.3802L40.5237 33.747ZM41.2591 34.972L42.2586 34.9406V34.9406L41.2591 34.972ZM41.251 35.134L42.2424 35.2646L42.2424 35.2646L41.251 35.134ZM38.1344 38.2505L38.2649 39.2419H38.2649L38.1344 38.2505ZM37.9727 38.2585L37.9415 39.258H37.9415L37.9727 38.2585ZM36.7474 37.523L36.1142 38.297V38.297L36.7474 37.523ZM34.5599 36.2839L34.2894 35.3211L34.2894 35.3211L34.5599 36.2839ZM34.3408 36.3746L34.8303 37.2466L34.8303 37.2466L34.3408 36.3746ZM33.6702 38.7979L32.6752 38.6984V38.6984L33.6702 38.7979ZM33.3237 40.1848L32.595 39.5L32.595 39.5L33.3237 40.1848ZM33.2039 40.2932L32.595 39.5L32.595 39.5L33.2039 40.2932ZM28.7962 40.2933L29.405 39.5L29.405 39.5L28.7962 40.2933ZM28.6762 40.1847L29.405 39.5L29.405 39.5L28.6762 40.1847ZM28.3298 38.7982L27.3348 38.8977L28.3298 38.7982ZM27.6592 36.3751L27.1697 37.2471L27.1697 37.2471L27.6592 36.3751ZM27.4402 36.2844L27.1697 37.2471L27.1697 37.2471L27.4402 36.2844ZM25.2526 37.5236L25.8858 38.2975L25.8858 38.2975L25.2526 37.5236ZM24.0272 38.2591L23.9961 37.2596H23.9961L24.0272 38.2591ZM23.8656 38.251L23.7351 39.2425H23.7351L23.8656 38.251ZM22.7195 37.3972L23.4266 36.6901L23.4266 36.6901L22.7195 37.3972ZM21.6027 36.2804L20.8956 36.9875L20.8956 36.9875L21.6027 36.2804ZM20.7489 35.1344L21.7404 35.0039L21.7404 35.0039L20.7489 35.1344ZM20.7409 34.9727L19.7414 34.9415L19.7413 34.9415L20.7409 34.9727ZM21.4764 33.7474L20.7024 33.1141H20.7024L21.4764 33.7474ZM22.7156 31.5598L23.6783 31.2893L23.6783 31.2893L22.7156 31.5598ZM22.6249 31.3408L23.4969 30.8513L23.4969 30.8513L22.6249 31.3408ZM20.2018 30.6702L20.1023 31.6652H20.1023L20.2018 30.6702ZM18.8153 30.3238L19.5 29.595L19.5 29.595L18.8153 30.3238ZM18.7067 30.2038L19.5 29.595L18.7067 30.2038ZM18.7067 25.7961L19.5 26.405L19.5 26.405L18.7067 25.7961ZM18.8152 25.6763L19.5 26.405L19.5 26.405L18.8152 25.6763ZM20.2019 25.3298L20.1024 24.3348L20.2019 25.3298ZM22.6254 24.659L23.4975 25.1483L23.4975 25.1483L22.6254 24.659ZM22.716 24.4403L21.7533 24.1697L21.7533 24.1697L22.716 24.4403ZM21.4766 22.2523L22.2506 21.619L21.4766 22.2523ZM20.7409 21.0266L21.7404 20.9956L20.7409 21.0266ZM20.749 20.8652L19.7575 20.7349L19.7575 20.7349L20.749 20.8652ZM21.6029 19.7189L20.8958 19.0118H20.8958L21.6029 19.7189ZM22.7196 18.6022L23.4267 19.3093L23.4267 19.3093L22.7196 18.6022ZM23.8657 17.7484L23.7352 16.757L23.7352 16.757L23.8657 17.7484ZM24.0273 17.7404L23.9961 18.7399H23.9961L24.0273 17.7404ZM25.2527 18.476L25.886 17.702V17.702L25.2527 18.476ZM27.4401 19.7151L27.1698 18.7524L27.1698 18.7524L27.4401 19.7151ZM27.6594 19.6243L28.1491 20.4962L28.1491 20.4962L27.6594 19.6243ZM28.3298 17.2016L29.3249 17.3011L29.3298 17.2515V17.2016H28.3298ZM28.3298 17.2016L27.3348 17.1021L27.3298 17.1517V17.2016H28.3298ZM28.6761 15.8154L29.405 16.5L29.405 16.5L28.6761 15.8154ZM28.7963 15.7066L29.405 16.5L29.405 16.5L28.7963 15.7066ZM33.2038 15.7067L32.595 16.5V16.5L33.2038 15.7067ZM34.6652 17.1023C34.6296 16.7461 34.5959 16.394 34.5328 16.1039C34.4648 15.7914 34.3414 15.4379 34.0526 15.1306L32.595 16.5C32.5387 16.4401 32.5505 16.4001 32.5786 16.5292C32.6115 16.6807 32.6348 16.8981 32.6751 17.3013L34.6652 17.1023ZM34.8303 18.7529C34.9804 18.8371 34.9377 18.9474 34.8628 18.6301C34.7888 18.3171 34.7405 17.8549 34.6652 17.1023L32.6751 17.3013C32.7444 17.9942 32.8045 18.6163 32.9163 19.0897C33.0271 19.5588 33.2474 20.1579 33.8513 20.4969L34.8303 18.7529ZM34.8303 18.7529H34.8303L33.8513 20.4969C33.9896 20.5745 34.1366 20.6354 34.2893 20.6783L34.8303 18.7529ZM36.1141 17.7025C35.5287 18.1814 35.1677 18.474 34.8941 18.6431C34.6167 18.8145 34.6645 18.7063 34.8303 18.7529L34.2893 20.6783C34.956 20.8656 35.5354 20.5978 35.9455 20.3444C36.3593 20.0887 36.8416 19.6913 37.3806 19.2504L36.1141 17.7025ZM37.9414 16.7414C37.52 16.7546 37.1827 16.9172 36.9137 17.0901C36.6639 17.2506 36.3912 17.4758 36.1141 17.7025L37.3806 19.2504C37.6942 18.9938 37.8644 18.8565 37.9948 18.7727C38.1059 18.7013 38.086 18.7379 38.0038 18.7404L37.9414 16.7414ZM38.2648 16.7575C38.1576 16.7434 38.0495 16.738 37.9414 16.7414L38.0038 18.7404L38.2648 16.7575ZM39.9875 17.8956C39.7343 17.6425 39.4853 17.3913 39.2528 17.2068C39.0023 17.008 38.6829 16.8126 38.2648 16.7575L38.0038 18.7404C37.9223 18.7297 37.9061 18.6914 38.0096 18.7734C38.131 18.8698 38.2867 19.0233 38.5733 19.3099L39.9875 17.8956ZM41.1043 19.0125L39.9875 17.8956L38.5733 19.3099L39.6901 20.4267L41.1043 19.0125ZM42.2424 20.7351C42.1874 20.3171 41.992 19.9977 41.7932 19.7471C41.6087 19.5146 41.3574 19.2656 41.1043 19.0125L39.6901 20.4267C39.9766 20.7132 40.1301 20.8689 40.2265 20.9904C40.3086 21.0938 40.2702 21.0776 40.2595 20.9961L42.2424 20.7351ZM42.2585 21.0585C42.2619 20.9504 42.2565 20.8423 42.2424 20.7352L40.2595 20.9961L40.2595 20.9961L42.2585 21.0585ZM41.2975 22.8859C41.5242 22.6088 41.7494 22.336 41.9098 22.0863C42.0827 21.8172 42.2454 21.48 42.2585 21.0585L40.2595 20.9961C40.2621 20.914 40.2986 20.894 40.2273 21.0051C40.1434 21.1356 40.0062 21.3058 39.7496 21.6194L41.2975 22.8859ZM40.2471 24.1697C40.2936 24.3355 40.1854 24.3833 40.3569 24.1059C40.5259 23.8323 40.8185 23.4713 41.2975 22.8859L39.7496 21.6194C39.3086 22.1584 38.9112 22.6407 38.6555 23.0545C38.4021 23.4646 38.1343 24.044 38.3216 24.7107L40.2471 24.1697ZM40.2471 24.1697L40.2471 24.1697L38.3216 24.7107C38.3645 24.8634 38.4254 25.0104 38.503 25.1487L40.2471 24.1697ZM41.8977 24.3348C41.145 24.2595 40.6829 24.2111 40.3699 24.1372C40.0525 24.0623 40.1628 24.0196 40.2471 24.1697L38.503 25.1487C38.842 25.7526 39.4411 25.9729 39.9102 26.0837C40.3837 26.1955 41.0057 26.2556 41.6987 26.3249L41.8977 24.3348ZM43.8694 24.9474C43.5621 24.6586 43.2086 24.5352 42.8961 24.4672C42.606 24.4041 42.2539 24.3704 41.8977 24.3348L41.6987 26.3249C42.1019 26.3652 42.3193 26.3885 42.4708 26.4214C42.5999 26.4495 42.5599 26.4613 42.5 26.405L43.8694 24.9474ZM44.0866 25.1874C44.0209 25.1016 43.9482 25.0214 43.8694 24.9474L42.5 26.405L42.5 26.405L44.0866 25.1874ZM44.5 27.2103C44.5 26.8523 44.5015 26.4986 44.4676 26.2037C44.431 25.8859 44.3434 25.5219 44.0866 25.1874L42.5 26.405C42.45 26.3398 42.4656 26.3012 42.4807 26.4324C42.4985 26.5864 42.5 26.8051 42.5 27.2103H44.5ZM44.5 28.7899V27.2103H42.5V28.7899H44.5ZM44.0868 30.8124C44.3434 30.4779 44.4311 30.1139 44.4676 29.7963C44.5015 29.5014 44.5 29.1478 44.5 28.7899H42.5C42.5 29.195 42.4985 29.4136 42.4807 29.5676C42.4656 29.6988 42.45 29.6602 42.5 29.595L44.0868 30.8124ZM43.8693 31.0528C43.9481 30.9787 44.0209 30.8983 44.0868 30.8124L42.5 29.595L42.5 29.595L43.8693 31.0528ZM41.8978 31.6652C42.254 31.6296 42.606 31.5959 42.896 31.5328C43.2085 31.4649 43.5619 31.3414 43.8693 31.0528L42.5 29.595C42.5599 29.5387 42.5998 29.5505 42.4708 29.5786C42.3193 29.6115 42.1019 29.6348 41.6988 29.6751L41.8978 31.6652ZM40.2475 31.8302C40.1632 31.9803 40.053 31.9376 40.3703 31.8627C40.6833 31.7888 41.1453 31.7405 41.8978 31.6652L41.6988 29.6751C41.006 29.7444 40.3841 29.8045 39.9107 29.9162C39.4417 30.027 38.8428 30.2472 38.5038 30.8508L40.2475 31.8302ZM40.2475 31.8302L40.2475 31.8302L38.5038 30.8508C38.4259 30.9894 38.3649 31.1367 38.322 31.2897L40.2475 31.8302ZM41.2977 33.1137C40.8188 32.5285 40.5263 32.1676 40.3573 31.8941C40.1859 31.6168 40.2941 31.6645 40.2475 31.8302L38.322 31.2897C38.1349 31.9563 38.4026 32.5355 38.656 32.9455C38.9116 33.3592 39.3089 33.8414 39.7498 34.3802L41.2977 33.1137ZM41.3558 33.1923L41.3558 33.1923L39.6917 34.3017L39.6917 34.3017L41.3558 33.1923ZM42.2586 34.9406C42.2454 34.5192 42.0827 34.1821 41.9099 33.9131C41.7494 33.6635 41.5243 33.3908 41.2977 33.1138L39.7498 34.3802C40.0063 34.6937 40.1435 34.8639 40.2273 34.9943C40.2987 35.1054 40.2622 35.0855 40.2596 35.0033L42.2586 34.9406ZM42.2424 35.2646C42.2566 35.1572 42.262 35.0489 42.2586 34.9406L40.2596 35.0033L40.2596 35.0033L42.2424 35.2646ZM41.1045 36.9868C41.3576 36.7337 41.6087 36.4848 41.7932 36.2524C41.992 36.0019 42.1874 35.6826 42.2424 35.2646L40.2596 35.0033C40.2703 34.9218 40.3087 34.9057 40.2266 35.0091C40.1302 35.1305 39.9767 35.2862 39.6903 35.5726L41.1045 36.9868ZM39.9875 38.1038L41.1045 36.9868L39.6903 35.5726L38.5733 36.6896L39.9875 38.1038ZM38.2649 39.2419C38.683 39.1869 39.0023 38.9915 39.2529 38.7926C39.4854 38.6081 39.7344 38.3569 39.9875 38.1038L38.5733 36.6896C38.2868 36.9761 38.1311 37.1296 38.0096 37.226C37.9062 37.3081 37.9224 37.2697 38.0039 37.259L38.2649 39.2419ZM37.9415 39.258C38.0496 39.2614 38.1577 39.256 38.2649 39.2419L38.0039 37.259H38.0039L37.9415 39.258ZM36.1142 38.297C36.3912 38.5237 36.664 38.7489 36.9137 38.9093C37.1828 39.0822 37.52 39.2449 37.9415 39.258L38.0039 37.259C38.0861 37.2616 38.106 37.2981 37.9949 37.2267C37.8644 37.1429 37.6942 37.0057 37.3806 36.7491L36.1142 38.297ZM34.8303 37.2466C34.6646 37.2931 34.6168 37.185 34.8942 37.3564C35.1678 37.5254 35.5288 37.818 36.1142 38.297L37.3806 36.7491C36.8417 36.3081 36.3594 35.9107 35.9455 35.655C35.5355 35.4016 34.9561 35.1338 34.2894 35.3211L34.8303 37.2466ZM34.8303 37.2466H34.8303L34.2894 35.3211C34.1367 35.364 33.9896 35.4249 33.8513 35.5026L34.8303 37.2466ZM34.6652 38.8974C34.7405 38.1447 34.7889 37.6825 34.8628 37.3694C34.9378 37.052 34.9805 37.1623 34.8303 37.2466L33.8513 35.5026C33.2474 35.8416 33.0271 36.4407 32.9163 36.9098C32.8045 37.3833 32.7445 38.0054 32.6752 38.6984L34.6652 38.8974ZM34.0524 40.8696C34.3413 40.5623 34.4648 40.2087 34.5328 39.8961C34.5959 39.606 34.6296 39.2537 34.6652 38.8974L32.6752 38.6984C32.6348 39.1017 32.6115 39.3192 32.5786 39.4708C32.5505 39.5999 32.5387 39.5599 32.595 39.5L34.0524 40.8696ZM33.8128 41.0865C33.8984 41.0208 33.9786 40.9483 34.0524 40.8696L32.595 39.5L32.595 39.5L33.8128 41.0865ZM31.7895 41.5C32.1476 41.5 32.5014 41.5015 32.7963 41.4676C33.1142 41.431 33.4783 41.3433 33.8128 41.0865L32.595 39.5C32.6602 39.4499 32.6988 39.4656 32.5676 39.4807C32.4135 39.4985 32.1948 39.5 31.7895 39.5V41.5ZM30.2103 41.5H31.7895V39.5H30.2103V41.5ZM28.1874 41.0866C28.5219 41.3434 28.886 41.431 29.2037 41.4676C29.4986 41.5015 29.8523 41.5 30.2103 41.5V39.5C29.8051 39.5 29.5864 39.4985 29.4324 39.4807C29.3012 39.4656 29.3398 39.45 29.405 39.5L28.1874 41.0866ZM27.9474 40.8694C28.0214 40.9482 28.1016 41.0208 28.1874 41.0867L29.405 39.5L29.405 39.5L27.9474 40.8694ZM27.3348 38.8977C27.3704 39.2539 27.4041 39.606 27.4672 39.8961C27.5352 40.2086 27.6586 40.5621 27.9474 40.8694L29.405 39.5C29.4613 39.5599 29.4495 39.5999 29.4214 39.4708C29.3885 39.3193 29.3652 39.1019 29.3249 38.6987L27.3348 38.8977ZM27.1697 37.2471C27.0196 37.1628 27.0623 37.0525 27.1372 37.3699C27.2111 37.6829 27.2595 38.145 27.3348 38.8977L29.3249 38.6987C29.2556 38.0057 29.1955 37.3837 29.0837 36.9102C28.9729 36.4411 28.7526 35.842 28.1486 35.503L27.1697 37.2471ZM27.1697 37.2471L27.1697 37.2471L28.1487 35.503C28.0104 35.4254 27.8634 35.3645 27.7107 35.3216L27.1697 37.2471ZM25.8858 38.2975C26.4713 37.8185 26.8323 37.5259 27.1059 37.3569C27.3833 37.1855 27.3355 37.2936 27.1697 37.2471L27.7107 35.3216C27.044 35.1343 26.4646 35.4021 26.0545 35.6555C25.6407 35.9112 25.1584 36.3086 24.6194 36.7496L25.8858 38.2975ZM24.0584 39.2586C24.4799 39.2455 24.8172 39.0828 25.0862 38.9099C25.336 38.7494 25.6087 38.5242 25.8858 38.2975L24.6194 36.7496C24.3057 37.0062 24.1355 37.1435 24.0051 37.2273C23.894 37.2987 23.9139 37.2621 23.9961 37.2596L24.0584 39.2586ZM23.7351 39.2425C23.8423 39.2566 23.9504 39.262 24.0584 39.2586L23.9961 37.2596L23.9961 37.2596L23.7351 39.2425ZM22.0124 38.1043C22.2656 38.3575 22.5146 38.6087 22.7471 38.7932C22.9976 38.992 23.317 39.1875 23.7351 39.2425L23.9961 37.2596C24.0776 37.2703 24.0938 37.3087 23.9903 37.2266C23.8689 37.1302 23.7131 36.9766 23.4266 36.6901L22.0124 38.1043ZM20.8956 36.9875L22.0124 38.1043L23.4266 36.6901L22.3098 35.5733L20.8956 36.9875ZM19.7575 35.2648C19.8125 35.6829 20.0079 36.0023 20.2067 36.2529C20.3912 36.4854 20.6425 36.7344 20.8956 36.9875L22.3098 35.5733C22.0233 35.2868 21.8698 35.1311 21.7734 35.0096C21.6913 34.9062 21.7297 34.9224 21.7404 35.0039L19.7575 35.2648ZM19.7413 34.9415C19.738 35.0496 19.7434 35.1577 19.7575 35.2649L21.7404 35.0039L21.7404 35.0039L19.7413 34.9415ZM20.7024 33.1141C20.4757 33.3912 20.2505 33.664 20.0901 33.9137C19.9172 34.1828 19.7545 34.52 19.7414 34.9415L21.7404 35.0039C21.7378 35.0861 21.7013 35.106 21.7726 34.9949C21.8565 34.8644 21.9938 34.6942 22.2503 34.3806L20.7024 33.1141ZM21.7529 31.8303C21.7063 31.6645 21.8145 31.6167 21.6431 31.8941C21.474 32.1677 21.1814 32.5287 20.7024 33.1141L22.2503 34.3806C22.6913 33.8416 23.0887 33.3593 23.3444 32.9455C23.5978 32.5354 23.8656 31.956 23.6783 31.2893L21.7529 31.8303ZM21.7529 31.8303L21.7529 31.8303L23.6783 31.2893C23.6354 31.1366 23.5745 30.9896 23.4969 30.8513L21.7529 31.8303ZM20.1023 31.6652C20.8549 31.7405 21.3171 31.7888 21.6301 31.8628C21.9474 31.9377 21.8371 31.9804 21.7529 31.8303L23.4969 30.8513C23.1579 30.2474 22.5588 30.0271 22.0897 29.9163C21.6163 29.8045 20.9942 29.7444 20.3013 29.6751L20.1023 31.6652ZM18.1306 31.0527C18.4379 31.3414 18.7914 31.4648 19.1039 31.5328C19.394 31.5959 19.7461 31.6296 20.1023 31.6652L20.3013 29.6751C19.8981 29.6348 19.6807 29.6115 19.5292 29.5786C19.4001 29.5505 19.4401 29.5387 19.5 29.595L18.1306 31.0527ZM17.9133 30.8126C17.9791 30.8983 18.0518 30.9786 18.1306 31.0527L19.5 29.595L19.5 29.595L17.9133 30.8126ZM17.5 28.7897C17.5 29.1477 17.4985 29.5014 17.5324 29.7963C17.569 30.114 17.6566 30.4781 17.9133 30.8126L19.5 29.595C19.55 29.6602 19.5344 29.6988 19.5193 29.5676C19.5015 29.4136 19.5 29.1949 19.5 28.7897H17.5ZM17.5 27.2104V28.7897H19.5V27.2104H17.5ZM17.9135 25.1872C17.6567 25.5218 17.569 25.8859 17.5324 26.2037C17.4985 26.4986 17.5 26.8524 17.5 27.2104H19.5C19.5 26.8052 19.5015 26.5865 19.5193 26.4324C19.5344 26.3012 19.5501 26.3398 19.5 26.405L17.9135 25.1872ZM18.1304 24.9475C18.0518 25.0214 17.9792 25.1016 17.9135 25.1872L19.5 26.405L19.5 26.405L18.1304 24.9475ZM20.1024 24.3348C19.7462 24.3704 19.394 24.4041 19.1039 24.4672C18.7913 24.5352 18.4378 24.6587 18.1304 24.9475L19.5 26.405C19.4401 26.4613 19.4001 26.4495 19.5292 26.4214C19.6807 26.3885 19.8982 26.3652 20.3014 26.3248L20.1024 24.3348ZM21.7533 24.1697C21.8376 24.0195 21.9479 24.0622 21.6305 24.1372C21.3175 24.2111 20.8552 24.2595 20.1024 24.3348L20.3014 26.3248C20.9945 26.2555 21.6167 26.1955 22.0902 26.0836C22.5594 25.9728 23.1586 25.7524 23.4975 25.1483L21.7533 24.1697ZM21.7533 24.1697H21.7533L23.4975 25.1483C23.575 25.0102 23.6358 24.8634 23.6787 24.711L21.7533 24.1697ZM20.7026 22.8855C21.1817 23.4711 21.4744 23.8322 21.6435 24.1058C21.8149 24.3833 21.7067 24.3354 21.7533 24.1697L23.6787 24.711C23.8662 24.0442 23.5983 23.4646 23.3449 23.0545C23.0891 22.6406 22.6916 22.1581 22.2506 21.619L20.7026 22.8855ZM19.7414 21.0576C19.7545 21.4792 19.9172 21.8165 20.0901 22.0857C20.2506 22.3355 20.4759 22.6083 20.7026 22.8855L22.2506 21.619C21.9939 21.3053 21.8566 21.1351 21.7727 21.0046C21.7013 20.8934 21.7379 20.9134 21.7404 20.9956L19.7414 21.0576ZM19.7575 20.7349C19.7434 20.8419 19.7381 20.9498 19.7414 21.0576L21.7404 20.9956L21.7404 20.9956L19.7575 20.7349ZM20.8958 19.0118C20.6426 19.265 20.3913 19.5141 20.2068 19.7466C20.0079 19.9972 19.8125 20.3167 19.7575 20.7349L21.7404 20.9956C21.7297 21.0771 21.6913 21.0933 21.7734 20.9898C21.8699 20.8683 22.0234 20.7126 22.31 20.426L20.8958 19.0118ZM22.0125 17.8951L20.8958 19.0118L22.31 20.426L23.4267 19.3093L22.0125 17.8951ZM23.7352 16.757C23.3171 16.812 22.9977 17.0074 22.7471 17.2062C22.5146 17.3907 22.2656 17.642 22.0125 17.8951L23.4267 19.3093C23.7132 19.0228 23.8689 18.8693 23.9904 18.7729C24.0938 18.6908 24.0776 18.7291 23.9961 18.7399L23.7352 16.757ZM24.0585 16.7408C23.9504 16.7375 23.8423 16.7429 23.7352 16.757L23.9961 18.7399H23.9961L24.0585 16.7408ZM25.886 17.702C25.6089 17.4753 25.3361 17.2501 25.0863 17.0896C24.8172 16.9167 24.48 16.754 24.0585 16.7408L23.9961 18.7399C23.9139 18.7373 23.894 18.7007 24.0051 18.7721C24.1356 18.856 24.3059 18.9933 24.6195 19.2499L25.886 17.702ZM27.1698 18.7524C27.3355 18.7058 27.3833 18.814 27.1059 18.6426C26.8323 18.4735 26.4713 18.1809 25.886 17.702L24.6195 19.2499C25.1584 19.6909 25.6407 20.0882 26.0545 20.3439C26.4645 20.5973 27.0437 20.8651 27.7104 20.6779L27.1698 18.7524ZM27.1698 18.7524L27.1698 18.7524L27.7104 20.6779C27.8633 20.635 28.0106 20.574 28.1491 20.4962L27.1698 18.7524ZM27.3348 17.1021C27.2596 17.8546 27.2112 18.3167 27.1373 18.6296C27.0624 18.9469 27.0197 18.8367 27.1698 18.7524L28.1491 20.4962C28.7528 20.1572 28.973 19.5582 29.0838 19.0892C29.1956 18.6158 29.2556 17.9939 29.3249 17.3011L27.3348 17.1021ZM27.3298 17.2016V17.2016H29.3298V17.2016H27.3298ZM27.9472 15.1308C27.6585 15.4381 27.5351 15.7915 27.4672 16.104C27.4041 16.3939 27.3704 16.746 27.3348 17.1021L29.3249 17.3011C29.3652 16.898 29.3885 16.6807 29.4214 16.5292C29.4495 16.4002 29.4613 16.4401 29.405 16.5L27.9472 15.1308ZM28.1876 14.9132C28.1017 14.9791 28.0213 15.0519 27.9472 15.1308L29.405 16.5L29.405 16.5L28.1876 14.9132ZM30.2101 14.5C29.8522 14.5 29.4986 14.4985 29.2037 14.5324C28.8861 14.5689 28.5221 14.6566 28.1876 14.9132L29.405 16.5C29.3398 16.55 29.3012 16.5344 29.4324 16.5193C29.5864 16.5015 29.805 16.5 30.2101 16.5V14.5ZM31.7897 14.5H30.2101V16.5H31.7897V14.5ZM33.8126 14.9133C33.4781 14.6566 33.114 14.569 32.7963 14.5324C32.5014 14.4985 32.1477 14.5 31.7897 14.5V16.5C32.1949 16.5 32.4136 16.5015 32.5676 16.5193C32.6988 16.5344 32.6602 16.55 32.595 16.5L33.8126 14.9133ZM34.0527 15.1306C33.9786 15.0518 33.8984 14.9791 33.8126 14.9133L32.595 16.5L32.595 16.5L34.0527 15.1306ZM35 28C35 30.2091 33.2091 32 31 32V34C34.3137 34 37 31.3137 37 28H35ZM31 24C33.2091 24 35 25.7909 35 28H37C37 24.6863 34.3137 22 31 22V24ZM27 28C27 25.7909 28.7909 24 31 24V22C27.6863 22 25 24.6863 25 28H27ZM31 32C28.7909 32 27 30.2091 27 28H25C25 31.3137 27.6863 34 31 34V32Z" fill="#2B201B"/>
</svg>
