<svg width="63" height="58" viewBox="0 0 63 58" fill="none" xmlns="http://www.w3.org/2000/svg">
<path d="M24.75 22.9149V21.112C24.75 18.9661 24.75 17.8932 25.4396 17.2951C26.1292 16.697 27.1914 16.8488 29.3157 17.1522L37.0985 18.2641C39.5547 18.615 40.7827 18.7904 41.5164 19.6363C42.25 20.4822 42.25 21.7227 42.25 24.2038V33.7962C42.25 36.2773 42.25 37.5178 41.5164 38.3637C40.7827 39.2096 39.5547 39.385 37.0985 39.7359L29.3157 40.8478C27.1914 41.1512 26.1292 41.303 25.4396 40.7049C24.75 40.1068 24.75 39.0339 24.75 36.888V35.3325" stroke="#2B201B" stroke-width="2"/>
<path d="M36 29L36.7809 28.3753L37.2806 29L36.7809 29.6247L36 29ZM21 30C20.4477 30 20 29.5523 20 29C20 28.4477 20.4477 28 21 28V30ZM31.7809 22.1253L36.7809 28.3753L35.2191 29.6247L30.2191 23.3747L31.7809 22.1253ZM36.7809 29.6247L31.7809 35.8747L30.2191 34.6253L35.2191 28.3753L36.7809 29.6247ZM36 30H21V28H36V30Z" fill="#2B201B"/>
</svg>

