<svg width="63" height="58" viewBox="0 0 63 58" fill="none" xmlns="http://www.w3.org/2000/svg">
<path d="M21 29C21 28.0714 21 27.6071 21.0342 27.2156C21.4149 22.8646 24.8646 19.4149 29.2156 19.0342C29.6071 19 30.0714 19 31 19V19C31.9286 19 32.3929 19 32.7844 19.0342C37.1354 19.4149 40.5851 22.8646 40.9658 27.2156C41 27.6071 41 28.0714 41 29V35.3636C41 36.8983 41 37.6657 40.6011 38.1986C40.4868 38.3512 40.3512 38.4868 40.1986 38.6011C39.6657 39 38.8983 39 37.3636 39H31C30.0714 39 29.6071 39 29.2156 38.9658C24.8646 38.5851 21.4149 35.1354 21.0342 30.7844C21 30.3929 21 29.9286 21 29V29Z" stroke="#33363F" stroke-width="2"/>
<path d="M27.25 27.75L34.75 27.75" stroke="#33363F" stroke-width="2" stroke-linecap="round" stroke-linejoin="round"/>
<path d="M31 32.75H34.75" stroke="#33363F" stroke-width="2" stroke-linecap="round" stroke-linejoin="round"/>
</svg>

