<svg width="28" height="28" viewBox="0 0 28 28" fill="none" xmlns="http://www.w3.org/2000/svg">
<g clip-path="url(#clip0_2_32)">
<path d="M27.4872 14.119C27.4872 6.52861 21.334 0.375397 13.7436 0.375397C6.15321 0.375397 0 6.52861 0 14.119C0 20.9787 5.02581 26.6646 11.5962 27.6956V18.0917H8.10657V14.119H11.5962V11.0911C11.5962 7.64662 13.648 5.74399 16.7873 5.74399C18.2911 5.74399 19.8638 6.01242 19.8638 6.01242V9.39463H18.1308C16.4236 9.39463 15.891 10.4541 15.891 11.541V14.119H19.7027L19.0934 18.0917H15.891V27.6956C22.4614 26.6646 27.4872 20.979 27.4872 14.119Z" fill="white"/>
</g>
<defs>
<clipPath id="clip0_2_32">
<rect width="27.4872" height="27.4872" fill="white" transform="translate(0 0.294861)"/>
</clipPath>
</defs>
</svg>

