<svg width="26" height="28" viewBox="0 0 26 28" fill="none" xmlns="http://www.w3.org/2000/svg">
<path d="M12.9551 28.0007C20.1025 28.0007 25.8966 21.8473 25.8966 14.2568C25.8966 6.66619 20.1025 0.512817 12.9551 0.512817C5.80776 0.512817 0.0136719 6.66619 0.0136719 14.2568C0.0136719 21.8473 5.80776 28.0007 12.9551 28.0007Z" fill="#2B201B"/>
<path d="M18.4559 8.22525C17.4814 7.55026 16.7777 6.47054 16.5582 5.21157C16.5108 4.93923 16.4849 4.6593 16.4849 4.37317H13.3738L13.3686 17.6138C13.3161 19.0968 12.1676 20.2869 10.7588 20.2869C10.3212 20.2869 9.90897 20.1704 9.54606 19.9676C8.71377 19.5023 8.14376 18.5756 8.14376 17.5097C8.14376 15.9784 9.31689 14.7325 10.7588 14.7325C11.0282 14.7325 11.286 14.7794 11.5307 14.8607V11.4878C11.2782 11.4513 11.0211 11.4285 10.7588 11.4285C7.60166 11.4285 5.03271 14.1568 5.03271 17.5097C5.03271 19.5671 6.0007 21.388 7.47701 22.4884C8.40734 23.182 9.53827 23.5901 10.7588 23.5901C13.9159 23.5901 16.4849 20.8626 16.4849 17.509V10.7949C17.7048 11.725 19.1999 12.2731 20.8132 12.2731V8.96919C19.9445 8.96919 19.135 8.69478 18.4565 8.22456L18.4559 8.22525Z" fill="#FFFAE6"/>
</svg>
