<svg width="27" height="20" viewBox="0 0 27 20" fill="none" xmlns="http://www.w3.org/2000/svg">
<path d="M25.563 3.59052C25.2647 2.40713 24.389 1.47716 23.2747 1.16039C21.2549 0.585663 13.1609 0.585663 13.1609 0.585663C13.1609 0.585663 5.06679 0.585663 3.04914 1.16039C1.93484 1.47716 1.05917 2.40713 0.760894 3.59052C0.219727 5.73329 0.219727 10.2066 0.219727 10.2066C0.219727 10.2066 0.219727 14.68 0.760894 16.8227C1.05917 18.0061 1.93484 18.9361 3.04914 19.2529C5.06679 19.8276 13.1609 19.8276 13.1609 19.8276C13.1609 19.8276 21.2549 19.8276 23.2726 19.2529C24.3869 18.9361 25.2626 18.0061 25.5608 16.8227C26.102 14.68 26.102 10.2066 26.102 10.2066C26.102 10.2066 26.102 5.73329 25.5608 3.59052H25.563ZM10.5722 14.3293V6.084L17.2963 10.2066L10.5722 14.3293Z" fill="#2B201B"/>
</svg>
