<svg width="27" height="28" viewBox="0 0 27 28" fill="none" xmlns="http://www.w3.org/2000/svg">
<path d="M7.80118 0.391072C6.42425 0.460065 5.48394 0.693431 4.66192 1.03647C3.81117 1.38858 3.09009 1.86109 2.37264 2.62578C1.65518 3.39047 1.21337 4.15682 0.884146 5.06169C0.565535 5.93661 0.349677 6.93604 0.288853 8.39919C0.22803 9.86233 0.214571 10.3326 0.2213 14.0648C0.22803 17.7971 0.243559 18.2649 0.310336 19.7311C0.376076 21.1931 0.595041 22.1914 0.918051 23.0647C1.25012 23.9682 1.69452 24.7337 2.41482 25.4959C3.13513 26.2582 3.85621 26.7263 4.71032 27.0765C5.53338 27.4143 6.47472 27.6446 7.85217 27.7087C9.22963 27.7727 9.67299 27.7875 13.1863 27.7804C16.6995 27.7733 17.1418 27.7568 18.5221 27.6872C19.9024 27.6177 20.8376 27.3835 21.6601 27.0421C22.5109 26.6886 23.2322 26.2175 23.9494 25.4522C24.6666 24.687 25.1081 23.9201 25.4371 23.0147C25.756 22.1406 25.9726 21.1409 26.0324 19.6791C26.0927 18.2121 26.1069 17.7437 26.1002 14.0121C26.0935 10.2804 26.0777 9.81258 26.0122 8.34696C25.9467 6.88134 25.7275 5.88603 25.4048 5.01222C25.0722 4.10871 24.6283 3.34374 23.9082 2.58098C23.1882 1.81821 22.4656 1.34955 21.6133 1.00101C20.7897 0.662645 19.8489 0.432028 18.4714 0.368807C17.094 0.305587 16.6506 0.289369 13.136 0.296516C9.62148 0.303663 9.18149 0.319605 7.80118 0.391072ZM7.95234 25.2362C6.69058 25.1779 6.00547 24.9553 5.54891 24.7689C4.9443 24.5215 4.51362 24.2225 4.05861 23.7439C3.6036 23.2654 3.32407 22.8063 3.08802 22.1656C2.91073 21.6807 2.6972 20.954 2.63819 19.614C2.574 18.1657 2.56054 17.7308 2.55303 14.0615C2.54553 10.3923 2.55873 9.95798 2.61852 8.50914C2.67235 7.17023 2.88329 6.44182 3.05852 5.95723C3.29146 5.3143 3.57202 4.85774 4.02367 4.37479C4.47531 3.89184 4.90625 3.59443 5.51008 3.34374C5.96613 3.15463 6.65046 2.92979 7.9117 2.86602C9.27647 2.7973 9.68541 2.78356 13.1399 2.77558C16.5944 2.76761 17.0044 2.78136 18.3697 2.84513C19.6304 2.9034 20.3166 3.12522 20.7723 3.31241C21.3772 3.55979 21.8076 3.85693 22.2624 4.33741C22.7171 4.81788 22.9974 5.27389 23.2335 5.91654C23.4118 6.39949 23.6235 7.12598 23.6831 8.46626C23.748 9.91565 23.7628 10.3502 23.769 14.0187C23.7752 17.6871 23.763 18.1228 23.7033 19.5711C23.6481 20.9111 23.439 21.6389 23.2633 22.1244C23.0303 22.7662 22.7495 23.2238 22.2976 23.7065C21.8457 24.1892 21.4153 24.4866 20.8112 24.7373C20.3556 24.9261 19.6705 25.1515 18.4103 25.2153C17.0456 25.2835 16.6366 25.2978 13.1808 25.3057C9.72501 25.3137 9.31737 25.2989 7.9526 25.2362M18.5022 6.69306C18.5027 7.01927 18.5943 7.33799 18.7654 7.60891C18.9365 7.87984 19.1794 8.09079 19.4634 8.2151C19.7474 8.33941 20.0597 8.37148 20.3608 8.30727C20.662 8.24305 20.9384 8.08544 21.1552 7.85435C21.372 7.62326 21.5194 7.32908 21.5788 7.00902C21.6382 6.68896 21.6068 6.35739 21.4887 6.05625C21.3706 5.75511 21.1711 5.49793 20.9154 5.31723C20.6597 5.13653 20.3592 5.04043 20.052 5.04108C19.6403 5.04195 19.2457 5.21647 18.955 5.52626C18.6644 5.83605 18.5015 6.25575 18.5022 6.69306ZM6.51613 14.0522C6.52338 17.9499 9.50398 21.1024 13.1733 21.095C16.8426 21.0875 19.8131 17.9224 19.8062 14.0247C19.7992 10.127 16.8178 6.9737 13.1479 6.9814C9.4781 6.98909 6.50914 10.1551 6.51613 14.0522ZM8.84709 14.0473C8.8454 13.1412 9.09675 12.2549 9.56935 11.5005C10.042 10.7461 10.7146 10.1575 11.5022 9.80911C12.2898 9.46071 13.157 9.36816 13.9941 9.54317C14.8312 9.71818 15.6007 10.1529 16.2051 10.7923C16.8096 11.4318 17.222 12.2472 17.3901 13.1355C17.5582 14.0239 17.4745 14.9452 17.1496 15.783C16.8246 16.6208 16.2731 17.3375 15.5646 17.8423C14.8561 18.3472 14.0226 18.6177 13.1694 18.6195C12.6029 18.6207 12.0417 18.5035 11.5179 18.2744C10.994 18.0453 10.5178 17.7088 10.1165 17.2842C9.71507 16.8596 9.39638 16.3552 9.17858 15.7998C8.96078 15.2444 8.84814 14.6489 8.84709 14.0473Z" fill="#2B201B"/>
</svg>
