<svg width="28" height="28" viewBox="0 0 28 28" fill="none" xmlns="http://www.w3.org/2000/svg">
<g clip-path="url(#clip0_2_47)">
<path d="M8.56435 0.391072C7.10204 0.460065 6.10343 0.693431 5.23043 1.03647C4.32693 1.38858 3.56114 1.86109 2.79919 2.62578C2.03725 3.39047 1.56804 4.15682 1.21841 5.06169C0.880038 5.93661 0.650795 6.93604 0.5862 8.39919C0.521605 9.86233 0.507312 10.3326 0.514458 14.0648C0.521605 17.7971 0.538097 18.2649 0.609014 19.7311C0.678832 21.1931 0.911373 22.1914 1.25441 23.0647C1.60707 23.9682 2.07903 24.7337 2.844 25.4959C3.60896 26.2582 4.37476 26.7263 5.28183 27.0765C6.15593 27.4143 7.15564 27.6446 8.6185 27.7087C10.0814 27.7727 10.5522 27.7875 14.2833 27.7804C18.0144 27.7733 18.4842 27.7568 19.9501 27.6872C21.416 27.6177 22.4091 27.3835 23.2826 27.0421C24.1861 26.6886 24.9522 26.2175 25.7139 25.4522C26.4755 24.687 26.9445 23.9201 27.2938 23.0147C27.6325 22.1406 27.8626 21.1409 27.926 19.6791C27.9901 18.2121 28.0052 17.7437 27.9981 14.0121C27.9909 10.2804 27.9742 9.81258 27.9046 8.34696C27.8351 6.88134 27.6022 5.88603 27.2595 5.01222C26.9063 4.10871 26.4349 3.34374 25.6702 2.58098C24.9055 1.81821 24.138 1.34955 23.2329 1.00101C22.3582 0.662645 21.3591 0.432028 19.8962 0.368807C18.4333 0.305587 17.9625 0.289369 14.23 0.296516C10.4975 0.303663 10.0302 0.319605 8.56435 0.391072ZM8.72488 25.2362C7.38488 25.1779 6.65729 24.9553 6.17242 24.7689C5.53032 24.5215 5.07293 24.2225 4.58971 23.7439C4.10648 23.2654 3.80962 22.8063 3.55894 22.1656C3.37065 21.6807 3.14388 20.954 3.08121 19.614C3.01304 18.1657 2.99875 17.7308 2.99078 14.0615C2.98281 10.3923 2.99683 9.95798 3.06032 8.50914C3.11749 7.17023 3.34151 6.44182 3.5276 5.95723C3.77499 5.3143 4.07295 4.85774 4.5526 4.37479C5.03225 3.89184 5.48991 3.59443 6.13119 3.34374C6.61551 3.15463 7.34227 2.92979 8.68172 2.86602C10.1311 2.7973 10.5654 2.78356 14.2341 2.77558C17.9028 2.76761 18.3382 2.78136 19.7882 2.84513C21.1271 2.9034 21.8558 3.12522 22.3398 3.31241C22.9822 3.55979 23.4393 3.85693 23.9223 4.33741C24.4052 4.81788 24.7029 5.27389 24.9536 5.91654C25.143 6.39949 25.3678 7.12598 25.431 8.46626C25.5 9.91565 25.5157 10.3502 25.5223 14.0187C25.5289 17.6871 25.516 18.1228 25.4525 19.5711C25.3939 20.9111 25.1718 21.6389 24.9852 22.1244C24.7378 22.7662 24.4396 23.2238 23.9596 23.7065C23.4797 24.1892 23.0226 24.4866 22.3811 24.7373C21.8973 24.9261 21.1697 25.1515 19.8313 25.2153C18.3819 25.2835 17.9477 25.2978 14.2776 25.3057C10.6075 25.3137 10.1746 25.2989 8.72515 25.2362M19.9289 6.69306C19.9295 7.01927 20.0267 7.33799 20.2084 7.60891C20.3901 7.87984 20.6481 8.09079 20.9497 8.2151C21.2513 8.33941 21.583 8.37148 21.9028 8.30727C22.2226 8.24305 22.5162 8.08544 22.7465 7.85435C22.9767 7.62326 23.1333 7.32908 23.1963 7.00902C23.2593 6.68896 23.226 6.35739 23.1006 6.05625C22.9752 5.75511 22.7633 5.49793 22.4917 5.31723C22.2201 5.13653 21.9011 5.04043 21.5749 5.04108C21.1376 5.04195 20.7185 5.21647 20.4098 5.52626C20.1012 5.83605 19.9282 6.25575 19.9289 6.69306ZM7.19962 14.0522C7.20731 17.9499 10.3727 21.1024 14.2696 21.095C18.1665 21.0875 21.3212 17.9224 21.3137 14.0247C21.3063 10.127 18.1401 6.9737 14.2427 6.9814C10.3452 6.98909 7.19219 10.1551 7.19962 14.0522ZM9.67511 14.0473C9.67332 13.1412 9.94025 12.2549 10.4422 11.5005C10.9441 10.7461 11.6584 10.1575 12.4948 9.80911C13.3313 9.46071 14.2522 9.36816 15.1413 9.54317C16.0303 9.71818 16.8475 10.1529 17.4894 10.7923C18.1314 11.4318 18.5693 12.2472 18.7479 13.1355C18.9264 14.0239 18.8375 14.9452 18.4924 15.783C18.1473 16.6208 17.5615 17.3375 16.8092 17.8423C16.0568 18.3472 15.1716 18.6177 14.2655 18.6195C13.6638 18.6207 13.0678 18.5035 12.5115 18.2744C11.9552 18.0453 11.4495 17.7088 11.0232 17.2842C10.5969 16.8596 10.2585 16.3552 10.0272 15.7998C9.79586 15.2444 9.67623 14.6489 9.67511 14.0473Z" fill="white"/>
</g>
<defs>
<clipPath id="clip0_2_47">
<rect width="27.4872" height="27.4872" fill="white" transform="translate(0.512817 0.294861)"/>
</clipPath>
</defs>
</svg>

