<svg width="28" height="28" viewBox="0 0 28 28" fill="none" xmlns="http://www.w3.org/2000/svg">
<g clip-path="url(#clip0_2_127)">
<path d="M13.7439 28.0007C21.3345 28.0007 27.4879 21.8473 27.4879 14.2568C27.4879 6.66619 21.3345 0.512817 13.7439 0.512817C6.15337 0.512817 0 6.66619 0 14.2568C0 21.8473 6.15337 28.0007 13.7439 28.0007Z" fill="white"/>
<path d="M19.5858 8.22525C18.5509 7.55026 17.8036 6.47054 17.5705 5.21157C17.5202 4.93923 17.4926 4.6593 17.4926 4.37317H14.1887L14.1831 17.6138C14.1273 19.0968 12.9076 20.2869 11.4115 20.2869C10.9468 20.2869 10.5089 20.1704 10.1235 19.9676C9.23963 19.5023 8.63427 18.5756 8.63427 17.5097C8.63427 15.9784 9.88015 14.7325 11.4115 14.7325C11.6976 14.7325 11.9713 14.7794 12.2312 14.8607V11.4878C11.963 11.4513 11.69 11.4285 11.4115 11.4285C8.05856 11.4285 5.33032 14.1568 5.33032 17.5097C5.33032 19.5671 6.35833 21.388 7.92618 22.4884C8.9142 23.182 10.1153 23.5901 11.4115 23.5901C14.7644 23.5901 17.4926 20.8626 17.4926 17.509V10.7949C18.7881 11.725 20.376 12.2731 22.0893 12.2731V8.96919C21.1668 8.96919 20.307 8.69478 19.5865 8.22456L19.5858 8.22525Z" fill="#2B201B" fill-opacity="0.8"/>
</g>
<defs>
<clipPath id="clip0_2_127">
<rect width="27.4872" height="27.4872" fill="white" transform="translate(0 0.512817)"/>
</clipPath>
</defs>
</svg>
