<svg width="28" height="28" viewBox="0 0 28 28" fill="none" xmlns="http://www.w3.org/2000/svg">
<g clip-path="url(#clip0_2_140)">
<path d="M27.4275 7.59052C27.1108 6.40713 26.1808 5.47716 24.9974 5.16039C22.8524 4.58566 14.2564 4.58566 14.2564 4.58566C14.2564 4.58566 5.66044 4.58566 3.51767 5.16039C2.33428 5.47716 1.40432 6.40713 1.08754 7.59052C0.512817 9.73329 0.512817 14.2066 0.512817 14.2066C0.512817 14.2066 0.512817 18.68 1.08754 20.8227C1.40432 22.0061 2.33428 22.9361 3.51767 23.2529C5.66044 23.8276 14.2564 23.8276 14.2564 23.8276C14.2564 23.8276 22.8524 23.8276 24.9951 23.2529C26.1785 22.9361 27.1085 22.0061 27.4253 20.8227C28 18.68 28 14.2066 28 14.2066C28 14.2066 28 9.73329 27.4253 7.59052H27.4275ZM11.5072 18.3293V10.084L18.6483 14.2066L11.5072 18.3293Z" fill="white"/>
</g>
<defs>
<clipPath id="clip0_2_140">
<rect width="27.4872" height="27.4872" fill="white" transform="translate(0.512817 0.512817)"/>
</clipPath>
</defs>
</svg>
